# xmcd
#
# Track frame offsets:
#	150
#	19572
#	40375
#	41255
#	59135
#	75885
#	90940
#	100020
#
# Disc length: 1623 seconds
#
# Revision: 1
# Processed by: cddbd v1.5.1PL0 Copyright (c) Steve Scherf et al.
# Submitted via: audiograbber 1.83.01
#
DISCID=4e065508
DTITLE=Defconn - Straight from the streetz EP
DYEAR=2001
DGENRE=Hip-Hop
TTITLE0=십자군
TTITLE1=NO. 1
TTITLE2=SKIT
TTITLE3=KILL DAT NOIZE (Feat. P-Type)
TTITLE4=NO JOKE (Feat. Verbal Jint)
TTITLE5=그의 여름은 화끈하네
TTITLE6=SKIT
TTITLE7=편지 (Feat. Rich C Luv)
EXTD=
EXTT0=
EXTT1=
EXTT2=
EXTT3=
EXTT4=
EXTT5=
EXTT6=
EXTT7=
PLAYORDER=
